:SAMPLES-PER-SECOND 30
:FULLY-SPECIFIED
:DEGREES
98
root  -40.5826 36.8998 -26.6334 -134.467 -78.1523 166.923
RightUpLeg  -70.0171 -9.88469 5.91828
RightLeg  39.6204 -1.50956 -1.6276
RightFoot  0.718603 0.881364 -8.28131
RightToes  0.000482159 0.542163 -0.142577
Spine  71.7469 -5.8988 6.35786
Spine1  8.42333 -0.0435806 -5.26004
HEad  -43.6264 -5.22973 8.74527
LeftShoulder1  6.05117 -23.6108 -15.3955
LeftArm  -68.9703 -53.9207 4.68665
LeftForeArm  -6.05417 -37.4053 -8.92169
LeftHand  -0.25398 0.0180481 5.50724
RightShoulder  1.17326 9.12714 1.01421
RightArm  -72.1527 47.2249 -6.06641
RightForeArm  -13.6561 40.7955 10.4767
RightHand  0.446267 -0.147804 9.91005
LeftUpLeg  -68.2408 12.8253 -16.1021
LeftLeg  37.8366 3.7045 3.455
LeftFoot  -2.41028 -0.434887 5.75139
LeftToes  1.06247e-005 4.65855e-005 -8.18501e-006
99
root  -40.4604 37.2771 -26.1633 -137.363 -76.395 167.661
RightUpLeg  -66.476 -9.87654 4.37763
RightLeg  36.4542 -0.186527 -0.413607
RightFoot  2.31293 0.885692 -7.25035
RightToes  0.000482159 0.542163 -0.142577
Spine  70.7446 -5.85721 6.49766
Spine1  8.67825 0.12301 -4.90032
HEad  -42.4792 -6.25292 9.58708
LeftShoulder1  6.6192 -23.6198 -17.6551
LeftArm  -62.0191 -52.6682 -0.835462
LeftForeArm  -6.21525 -39.0251 -9.44534
LeftHand  -0.25398 0.0180481 5.50724
RightShoulder  1.46187 9.49375 3.23204
RightArm  -66.005 46.6682 -3.13554
RightForeArm  -16.8661 43.9043 11.8159
RightHand  0.181509 -2.54391 8.30042
LeftUpLeg  -64.7089 13.3928 -16.2552
LeftLeg  35.3876 4.52946 3.81465
LeftFoot  -1.66118 -0.488528 5.88283
LeftToes  1.06247e-005 4.65855e-005 -8.18501e-006
100
root  -40.3483 37.6005 -25.6094 -141.148 -74.335 168.966
RightUpLeg  -62.7797 -9.5963 2.83342
RightLeg  33.5066 1.06462 0.510452
RightFoot  3.84404 0.861974 -6.25588
RightToes  0.000482159 0.542163 -0.142577
Spine  69.678 -5.60059 6.47778
Spine1  8.79427 0.20462 -4.37462
HEad  -41.1413 -7.11382 10.3115
LeftShoulder1  7.21783 -23.47 -20.1816
LeftArm  -55.1884 -50.6658 -6.22444
LeftForeArm  -5.47889 -40.9405 -10.0466
LeftHand  -0.25398 0.0180481 5.50724
RightShoulder  1.87056 10.1212 6.02884
RightArm  -59.079 45.8318 -0.0904124
RightForeArm  -19.6649 46.7647 13.1801
RightHand  0.0259101 -4.14845 5.84187
LeftUpLeg  -61.0204 13.3798 -15.3124
LeftLeg  33.7226 5.28033 4.14426
LeftFoot  -0.940454 -0.490269 5.44347
LeftToes  1.06247e-005 4.65855e-005 -8.18501e-006
101
root  -40.2484 37.8854 -24.9953 -145.477 -72.0563 170.494
RightUpLeg  -58.8508 -9.11171 1.38644
RightLeg  30.6519 2.23033 1.18559
RightFoot  5.46025 0.815805 -5.26779
RightToes  0.000482159 0.542163 -0.142577
Spine  68.5704 -5.13959 6.33443
Spine1  8.78727 0.244918 -3.74028
HEad  -39.8837 -7.95866 11.2295
LeftShoulder1  7.88892 -23.2935 -23.0262
LeftArm  -49.1164 -47.8687 -10.9787
LeftForeArm  -3.93718 -43.4529 -10.8611
LeftHand  -0.25398 0.0180481 5.50724
RightShoulder  2.40918 10.8084 9.51267
RightArm  -52.4116 44.38 3.06101
RightForeArm  -20.4229 49.5978 14.5831
RightHand  -0.0174126 -4.80004 4.26043
LeftUpLeg  -57.312 11.8177 -12.5016
LeftLeg  33.1498 5.23342 4.03048
LeftFoot  0.438862 -0.438873 4.25524
LeftToes  1.06247e-005 4.65855e-005 -8.18501e-006
102
root  -40.1624 38.1496 -24.3342 -149.725 -69.7252 171.399
RightUpLeg  -54.4429 -8.85191 0.00665762
RightLeg  27.8148 4.02315 2.06538
RightFoot  7.19199 0.694333 -3.95104
RightToes  0.000482159 0.542163 -0.142577
Spine  67.6904 -4.69062 6.13991
Spine1  8.78202 0.163752 -3.07068
HEad  -38.8385 -9.05059 12.4664
LeftShoulder1  8.59904 -23.0023 -26.1708
LeftArm  -43.995 -44.723 -14.7462
LeftForeArm  -2.05959 -46.3854 -11.9088
LeftHand  -0.25398 0.0180481 5.50724
RightShoulder  2.98089 11.1853 13.3559
RightArm  -46.5813 42.0623 6.10251
RightForeArm  -19.1324 52.8308 16.3015
RightHand  -0.0377163 -5.24877 4.39106
LeftUpLeg  -53.2677 7.66856 -7.72115
LeftLeg  33.6057 3.48418 2.84017
LeftFoot  2.13778 -0.240514 1.93398
LeftToes  1.06247e-005 4.65855e-005 -8.18501e-006
103
root  -40.1282 38.3441 -23.5987 -154.372 -67.1364 172.223
RightUpLeg  -49.8164 -8.81313 -1.14777
RightLeg  25.3919 6.58883 3.17726
RightFoot  8.70019 0.539927 -2.70878
RightToes  0.000482159 0.542163 -0.142577
Spine  67.065 -4.32237 6.05922
Spine1  8.90105 0.0465532 -2.55867
HEad  -37.8797 -10.543 13.8058
LeftShoulder1  9.28045 -22.533 -29.4691
LeftArm  -39.5345 -41.3756 -17.5762
LeftForeArm  0.0798076 -49.6345 -13.2283
LeftHand  -0.25398 0.0180481 5.50724
RightShoulder  3.48596 11.1874 17.1123
RightArm  -41.6299 38.8796 8.80918
RightForeArm  -17.1274 56.5776 18.6737
RightHand  -0.0898938 -6.22941 5.32985
LeftUpLeg  -48.7371 1.82278 -2.52868
LeftLeg  34.6944 -0.439977 0.0248406
LeftFoot  1.74103 0.0868816 -0.911421
LeftToes  1.06247e-005 4.65855e-005 -8.18501e-006
104
root  -40.1737 38.4457 -22.7677 -159.518 -63.6061 173.715
RightUpLeg  -45.636 -8.16647 -2.01252
RightLeg  23.2626 9.15674 4.08377
RightFoot  10.1003 0.418693 -1.84011
RightToes  0.000482159 0.542163 -0.142577
Spine  66.1034 -3.70168 5.90541
Spine1  9.06302 0.258394 -2.47423
HEad  -36.6986 -12.3157 14.8392
LeftShoulder1  9.95587 -21.9731 -32.9391
LeftArm  -35.7806 -37.4658 -19.303
LeftForeArm  2.9139 -53.3372 -14.9739
LeftHand  -0.25398 0.0180481 5.50724
RightShoulder  3.91504 11.0405 20.5481
RightArm  -37.3801 35.1424 11.2791
RightForeArm  -15.087 60.5044 21.8418
RightHand  -0.177332 -7.80949 5.51509
LeftUpLeg  -43.83 -2.70898 0.810112
LeftLeg  35.3339 -4.83597 -3.30442
LeftFoot  -1.8775 0.223955 -2.53025
LeftToes  1.06247e-005 4.65855e-005 -8.18501e-006
105
root  -40.2766 38.5263 -21.8868 -163.737 -58.8192 175.108
RightUpLeg  -42.1615 -6.1326 -2.99321
RightLeg  20.335 11.6005 4.55281
RightFoot  12.0126 0.1232 -0.21701
RightToes  0.000482159 0.542163 -0.142577
Spine  64.537 -2.45784 4.93838
Spine1  9.11168 0.933475 -2.78017
HEad  -35.0539 -13.9314 15.1675
LeftShoulder1  10.6228 -21.3527 -36.5523
LeftArm  -33.1747 -32.7129 -19.5678
LeftForeArm  6.51991 -57.5024 -17.3696
LeftHand  -0.25398 0.0180481 5.50724
RightShoulder  4.26847 10.8983 23.4405
RightArm  -33.4298 31.3889 13.9243
RightForeArm  -12.4617 64.1125 25.6278
RightHand  -0.221666 -9.28439 4.38682
LeftUpLeg  -39.109 -3.60873 1.35387
LeftLeg  34.4434 -6.7073 -4.58013
LeftFoot  -5.70506 0.160282 -2.52288
LeftToes  1.06247e-005 4.65855e-005 -8.18501e-006
106
root  -40.4072 38.6466 -21.0193 -166.838 -53.4547 175.949
RightUpLeg  -38.7795 -3.63979 -3.81736
RightLeg  16.0538 14.9372 4.57327
RightFoot  13.9047 -0.57533 3.00151
RightToes  0.000482159 0.542163 -0.142577
Spine  63.0119 -0.854147 3.07663
Spine1  8.44442 1.55609 -2.93781
HEad  -32.8513 -14.8489 14.6953
LeftShoulder1  11.1125 -20.6063 -39.7944
LeftArm  -31.7425 -27.1729 -18.5351
LeftForeArm  10.3468 -61.7865 -20.608
LeftHand  -0.25398 0.0180481 5.50724
RightShoulder  4.52304 10.745 25.6503
RightArm  -29.166 27.9958 16.993
RightForeArm  -8.90338 67.0398 29.607
RightHand  -0.191694 -10.0389 2.83339
LeftUpLeg  -35.2897 -1.23219 0.113218
LeftLeg  32.639 -5.49225 -3.43493
LeftFoot  -6.84436 0.114857 -1.90771
LeftToes  1.06247e-005 4.65855e-005 -8.18501e-006
107
root  -40.5583 38.7978 -20.1976 -169.911 -48.5022 176.661
RightUpLeg  -34.9595 -3.0632 -3.56309
RightLeg  11.4476 18.2099 4.07016
RightFoot  13.8694 -1.26544 6.1086
RightToes  0.000482159 0.542163 -0.142577
Spine  62.215 0.158663 1.19998
Spine1  6.89539 1.38023 -2.84789
HEad  -30.2071 -14.5519 13.9003
LeftShoulder1  11.0691 -19.5314 -41.6498
LeftArm  -30.9768 -21.178 -17.0996
LeftForeArm  13.9494 -65.6994 -24.6643
LeftHand  -0.25398 0.0180481 5.50724
RightShoulder  4.78004 10.7795 27.4347
RightArm  -24.418 25.0906 20.4767
RightForeArm  -5.28619 69.1648 33.2626
RightHand  -0.139549 -10.2495 1.49663
LeftUpLeg  -32.2316 2.43556 -1.27134
LeftLeg  31.3162 -3.42647 -1.89427
LeftFoot  -5.84941 0.0926763 -1.20427
LeftToes  1.06247e-005 4.65855e-005 -8.18501e-006
108
root  -40.7269 38.9785 -19.4547 -172.988 -43.9878 177.361
RightUpLeg  -31.1828 -4.09667 -3.32189
RightLeg  7.91587 15.9308 3.70976
RightFoot  11.1611 -1.27156 6.74109
RightToes  0.000482159 0.542163 -0.142577
Spine  60.5287 0.252966 -0.109838
Spine1  7.26991 0.611082 -3.15433
HEad  -28.3107 -13.1844 13.5927
LeftShoulder1  10.3951 -18.312 -41.2861
LeftArm  -31.0304 -16.1804 -16.4137
LeftForeArm  17.2333 -68.5325 -28.6429
LeftHand  -0.25398 0.0180481 5.50724
RightShoulder  5.15604 11.2925 28.8485
RightArm  -20.6457 23.0651 24.2023
RightForeArm  -2.61629 70.4573 35.9746
RightHand  -0.0686051 -10.1091 -0.129239
LeftUpLeg  -29.2531 6.12662 -1.98326
LeftLeg  30.2293 -2.4571 -1.19681
LeftFoot  -4.80856 0.0791565 -0.875666
LeftToes  1.06247e-005 4.65855e-005 -8.18501e-006
109
root  -40.895 39.1925 -18.8372 -175.124 -39.1493 177.687
RightUpLeg  -28.3211 -5.51761 -3.67351
RightLeg  5.86032 6.72453 3.84957
RightFoot  7.34829 -0.80875 5.20315
RightToes  0.000482159 0.542163 -0.142577
Spine  57.8684 0.497682 -1.39749
Spine1  8.40602 0.275093 -3.70911
HEad  -26.6568 -12.4201 13.5041
LeftShoulder1  9.83941 -17.3764 -40.813
LeftArm  -30.9319 -11.9657 -15.9079
LeftForeArm  19.9017 -70.2798 -31.7733
LeftHand  -0.25398 0.0180481 5.50724
RightShoulder  5.54431 11.7729 30.3337
RightArm  -17.8817 20.5706 27.5362
RightForeArm  0.350769 71.5851 38.713
RightHand  0.00775462 -9.60704 -2.02891
LeftUpLeg  -26.3426 10.0007 -2.36358
LeftLeg  28.4176 -2.0924 -0.88575
LeftFoot  -4.45387 0.0914919 -1.06084
LeftToes  1.06247e-005 4.65855e-005 -8.18501e-006
110
root  -41.0521 39.4387 -18.362 -176.49 -33.8227 177.699
RightUpLeg  -26.2624 -6.75838 -4.16744
RightLeg  5.12975 -4.18197 3.97642
RightFoot  4.82332 -0.470281 3.56498
RightToes  0.000482159 0.542163 -0.142577
Spine  55.5544 1.59594 -2.99501
Spine1  8.17979 0.69017 -3.52179
HEad  -24.7907 -13.4093 13.1842
LeftShoulder1  9.8053 -16.9187 -41.6441
LeftArm  -30.1493 -7.64627 -15.1031
LeftForeArm  22.3457 -71.596 -34.5993
LeftHand  -0.25398 0.0180481 5.50724
RightShoulder  5.65845 11.6338 31.4265
RightArm  -15.7044 16.5478 30.3083
RightForeArm  5.3437 72.9588 42.5192
RightHand  0.0343938 -9.20132 -2.88585
LeftUpLeg  -23.5871 14.0674 -2.61069
LeftLeg  25.8991 -1.07529 -0.233714
LeftFoot  -3.97126 0.119945 -1.42457
LeftToes  1.06247e-005 4.65855e-005 -8.18501e-006
111
root  -41.191 39.696 -17.9808 -177.947 -28.3216 177.819
RightUpLeg  -24.5298 -8.29775 -4.39339
RightLeg  6.13908 -10.3841 3.74831
RightFoot  4.29402 -0.360018 2.84003
RightToes  0.000482159 0.542163 -0.142577
Spine  53.0919 2.39538 -4.13429
Spine1  8.06032 1.29785 -3.92876
HEad  -23.708 -15.3672 13.9501
LeftShoulder1  9.71122 -16.687 -41.7269
LeftArm  -29.5237 -3.36552 -14.9229
LeftForeArm  25.3875 -72.8988 -37.9159
LeftHand  -0.25398 0.0180481 5.50724
RightShoulder  5.95949 11.6785 33.3021
RightArm  -14.4121 12.4666 31.4426
RightForeArm  10.7322 74.1 46.3003
RightHand  0.0126835 -9.51686 -2.14593
LeftUpLeg  -20.8302 18.2345 -2.39783
LeftLeg  23.4468 0.366259 0.513116
LeftFoot  -3.00764 0.138099 -1.61849
LeftToes  1.06247e-005 4.65855e-005 -8.18501e-006
112
root  -41.3093 39.9273 -17.6639 -179.644 -23.298 178.002
RightUpLeg  -23.1492 -12.6826 -3.84107
RightLeg  9.2546 -9.40412 2.93532
RightFoot  4.13834 -0.272249 2.20719
RightToes  0.000482159 0.542163 -0.142577
Spine  51.0244 2.82326 -4.80326
Spine1  7.59726 1.51505 -3.7704
HEad  -23.2101 -18.0796 15.5381
LeftShoulder1  9.62926 -16.3797 -42.0389
LeftArm  -28.7571 0.770405 -14.7555
LeftForeArm  29.4598 -74.2911 -42.244
LeftHand  -0.25398 0.0180481 5.50724
RightShoulder  6.24687 11.748 34.9929
RightArm  -13.3687 8.42739 31.7309
RightForeArm  15.9017 75.1058 50.4725
RightHand  -0.0330335 -10.5007 -0.929991
LeftUpLeg  -17.9051 22.4967 -1.72603
LeftLeg  21.3421 1.05155 0.827126
LeftFoot  -2.19913 0.135175 -1.52848
LeftToes  1.06247e-005 4.65855e-005 -8.18501e-006
